<svg width="512" height="512" viewBox="0 0 512 512" xmlns="http://www.w3.org/2000/svg">
  <defs>
    <linearGradient id="bg" x1="0" y1="0" x2="0" y2="1">
      <stop offset="0" stop-color="#6b4423"/>
      <stop offset="1" stop-color="#3a2210"/>
    </linearGradient>
    <radialGradient id="glow" cx="0.5" cy="0.42" r="0.62">
      <stop offset="0" stop-color="#7d5129"/>
      <stop offset="1" stop-color="#452813"/>
    </radialGradient>
    <linearGradient id="amber" x1="0" y1="0" x2="0" y2="1">
      <stop offset="0" stop-color="#e6b25c"/>
      <stop offset="1" stop-color="#c68a34"/>
    </linearGradient>
    <filter id="sh" x="-25%" y="-25%" width="150%" height="150%">
      <feDropShadow dx="0" dy="7" stdDeviation="8" flood-color="#241206" flood-opacity="0.55"/>
    </filter>
  </defs>
  <rect x="26" y="26" width="460" height="460" rx="104" fill="url(#bg)"/><rect x="41" y="41" width="430" height="430" rx="90" fill="none" stroke="#e0b88a" stroke-opacity="0.5" stroke-width="7"/><circle cx="256" cy="256" r="176" fill="url(#glow)" stroke="#e0b88a" stroke-opacity="0.32" stroke-width="5"/>
  <!-- MOTIF -->
  <g transform="translate(256,266)" filter="url(#sh)">
    
    <path d="M -64 -110 L 64 -110 L 50 96 Q48 116 28 116 L -28 116 Q-48 116 -50 96 Z"
      fill="none" stroke="#f2e9d8" stroke-width="11" stroke-linejoin="round"/>
    <path d="M -58 -6 L 58 -6 L 50 96 Q48 114 28 114 L -28 114 Q-48 114 -50 96 Z" fill="url(#amber)"/>
    <rect x="-10" y="8" width="34" height="34" rx="8" fill="#f2e9d8" fill-opacity="0.55"/>
    <rect x="-42" y="40" width="26" height="26" rx="6" fill="#f2e9d8" fill-opacity="0.4"/>
    
  </g>
</svg>